<svg width="200" height="80" viewBox="0 0 200 80" xmlns="http://www.w3.org/2000/svg">
  <!-- dbt pinwheel mark + typographic wordmark, matching the dbdocs SPA branding -->
  <g transform="translate(8 16)">
    <g fill="#FF694A">
      <path d="M24 9.6c.75 0 1.38.42 1.72 1.08l2.8 5.4a7 7 0 0 0-3.44 3.44l-5.4-2.8A1.95 1.95 0 0 1 18.6 14.85l2.92-4.4c.36-.54.96-.85 1.6-.85z" transform="translate(0 0)"/>
      <path d="M38.4 24c0 .75-.42 1.38-1.08 1.72l-5.4 2.8a7 7 0 0 0-3.44-3.44l2.8-5.4A1.95 1.95 0 0 1 33.15 18.6l4.4 2.92c.54.36.85.96.85 1.6z"/>
      <path d="M24 38.4c-.75 0-1.38-.42-1.72-1.08l-2.8-5.4a7 7 0 0 0 3.44-3.44l5.4 2.8A1.95 1.95 0 0 1 29.4 33.15l-2.92 4.4c-.36.54-.96.85-1.6.85z"/>
      <path d="M9.6 24c0-.75.42-1.38 1.08-1.72l5.4-2.8a7 7 0 0 0 3.44 3.44l-2.8 5.4A1.95 1.95 0 0 1 14.85 29.4l-4.4-2.92A1.9 1.9 0 0 1 9.6 24z"/>
    </g>
  </g>
  <text x="58" y="50" font-family="'JetBrains Mono', monospace, system-ui, sans-serif" font-size="34" font-weight="700" fill="#374151">db</text>
  <text x="100" y="50" font-family="'JetBrains Mono', monospace, system-ui, sans-serif" font-size="34" font-weight="300" fill="#FF694A">docs</text>
</svg>
