<svg xmlns="http://www.w3.org/2000/svg" viewBox="0 0 32 32" width="32" height="32" role="img" aria-label="dbdocs">
  <rect x="1" y="1" width="30" height="30" rx="7" fill="#262A38"/>
  <rect x="1.5" y="1.5" width="29" height="29" rx="6.5" fill="none" stroke="#3a4250" stroke-width="1"/>
  <g fill="#FF694A">
    <path d="M16 6.4c.5 0 .92.28 1.15.72l1.86 3.6a4.7 4.7 0 0 0-2.29 2.29l-3.6-1.86A1.3 1.3 0 0 1 12.4 9.9l1.95-2.93c.24-.36.64-.57 1.07-.57z"/>
    <path d="M25.6 16c0 .5-.28.92-.72 1.15l-3.6 1.86a4.7 4.7 0 0 0-2.29-2.29l1.86-3.6A1.3 1.3 0 0 1 22.1 12.4l2.93 1.95c.36.24.57.64.57 1.07z"/>
    <path d="M16 25.6c-.5 0-.92-.28-1.15-.72l-1.86-3.6a4.7 4.7 0 0 0 2.29-2.29l3.6 1.86A1.3 1.3 0 0 1 19.6 22.1l-1.95 2.93c-.24.36-.64.57-1.07.57z"/>
    <path d="M6.4 16c0-.5.28-.92.72-1.15l3.6-1.86a4.7 4.7 0 0 0 2.29 2.29l-1.86 3.6A1.3 1.3 0 0 1 9.9 19.6L6.97 17.65A1.27 1.27 0 0 1 6.4 16z"/>
  </g>
</svg>
